<svg width="76" height="22" viewBox="0 0 76 22" fill="none" xmlns="http://www.w3.org/2000/svg">
<path d="M30.61 1C30.9767 1 31.3067 1.08667 31.6 1.26C31.8933 1.42667 32.12 1.66333 32.28 1.97C32.4467 2.27 32.53 2.61 32.53 2.99C32.53 3.37 32.4467 3.71667 32.28 4.03C32.12 4.34333 31.8933 4.59 31.6 4.77C31.3067 4.95 30.9767 5.04 30.61 5.04H28.54V7.7C28.54 7.78667 28.51 7.86 28.45 7.92C28.3967 7.97333 28.3267 8 28.24 8C28.1533 8 28.08 7.97333 28.02 7.92C27.9667 7.86 27.94 7.78667 27.94 7.7V1.3C27.94 1.21333 27.9667 1.14333 28.02 1.09C28.08 1.03 28.1533 1 28.24 1H30.61ZM30.61 4.46C30.9967 4.46 31.31 4.32 31.55 4.04C31.79 3.76 31.91 3.41 31.91 2.99C31.91 2.57667 31.79 2.24 31.55 1.98C31.31 1.72 30.9967 1.59 30.61 1.59H28.54V4.46H30.61ZM38.3694 5.44C38.3694 5.94 38.2594 6.39333 38.0394 6.8C37.8194 7.20667 37.516 7.52667 37.1294 7.76C36.7427 7.98667 36.3127 8.1 35.8394 8.1C35.366 8.1 34.936 7.98667 34.5494 7.76C34.1627 7.52667 33.8594 7.20667 33.6394 6.8C33.4194 6.39333 33.3094 5.94 33.3094 5.44C33.3094 4.94 33.4194 4.48667 33.6394 4.08C33.8594 3.67333 34.1627 3.35333 34.5494 3.12C34.936 2.88667 35.366 2.77 35.8394 2.77C36.3127 2.77 36.7427 2.88667 37.1294 3.12C37.516 3.35333 37.8194 3.67333 38.0394 4.08C38.2594 4.48667 38.3694 4.94 38.3694 5.44ZM37.7694 5.44C37.7694 5.04 37.686 4.68 37.5194 4.36C37.3527 4.04 37.1194 3.79 36.8194 3.61C36.526 3.42333 36.1994 3.33 35.8394 3.33C35.4794 3.33 35.1527 3.42333 34.8594 3.61C34.566 3.79 34.3327 4.04 34.1594 4.36C33.9927 4.68 33.9094 5.04 33.9094 5.44C33.9094 5.83333 33.9927 6.19 34.1594 6.51C34.3327 6.83 34.566 7.08333 34.8594 7.27C35.1527 7.45 35.4794 7.54 35.8394 7.54C36.1994 7.54 36.526 7.45 36.8194 7.27C37.1194 7.09 37.3527 6.84 37.5194 6.52C37.686 6.2 37.7694 5.84 37.7694 5.44ZM45.3966 2.85C45.9966 2.85 46.4366 3.03667 46.7166 3.41C47.0033 3.77667 47.1466 4.26333 47.1466 4.87V7.7C47.1466 7.78667 47.1166 7.86 47.0566 7.92C47.0033 7.97333 46.9333 8 46.8466 8C46.76 8 46.6866 7.97333 46.6266 7.92C46.5733 7.86 46.5466 7.78667 46.5466 7.7V4.9C46.5466 4.46 46.44 4.10333 46.2266 3.83C46.02 3.55 45.6966 3.41 45.2566 3.41C44.9766 3.41 44.71 3.47667 44.4566 3.61C44.21 3.74333 44.01 3.92667 43.8566 4.16C43.7033 4.38667 43.6266 4.63333 43.6266 4.9V7.7C43.6266 7.78667 43.5966 7.86 43.5366 7.92C43.4833 7.97333 43.4133 8 43.3266 8C43.24 8 43.1666 7.97333 43.1066 7.92C43.0533 7.86 43.0266 7.78667 43.0266 7.7V4.87C43.0266 4.43667 42.9266 4.08667 42.7266 3.82C42.5266 3.54667 42.2133 3.41 41.7866 3.41C41.5133 3.41 41.2533 3.47667 41.0066 3.61C40.7666 3.74333 40.57 3.92333 40.4166 4.15C40.27 4.37 40.1966 4.61 40.1966 4.87V7.7C40.1966 7.78667 40.1666 7.86 40.1066 7.92C40.0533 7.97333 39.9833 8 39.8966 8C39.81 8 39.7366 7.97333 39.6766 7.92C39.6233 7.86 39.5966 7.78667 39.5966 7.7V3.22C39.5966 3.13333 39.6233 3.06333 39.6766 3.01C39.7366 2.95 39.81 2.92 39.8966 2.92C39.9833 2.92 40.0533 2.95 40.1066 3.01C40.1666 3.06333 40.1966 3.13333 40.1966 3.22V3.8C40.3766 3.52667 40.62 3.3 40.9266 3.12C41.2333 2.94 41.5566 2.85 41.8966 2.85C42.2833 2.85 42.6166 2.94333 42.8966 3.13C43.1766 3.31667 43.3766 3.59 43.4966 3.95C43.6366 3.65667 43.8933 3.4 44.2666 3.18C44.64 2.96 45.0166 2.85 45.3966 2.85ZM53.4377 5.44C53.4377 5.94 53.3277 6.39333 53.1077 6.8C52.8877 7.20667 52.5844 7.52667 52.1977 7.76C51.8111 7.98667 51.3811 8.1 50.9077 8.1C50.4344 8.1 50.0044 7.98667 49.6177 7.76C49.2311 7.52667 48.9277 7.20667 48.7077 6.8C48.4877 6.39333 48.3777 5.94 48.3777 5.44C48.3777 4.94 48.4877 4.48667 48.7077 4.08C48.9277 3.67333 49.2311 3.35333 49.6177 3.12C50.0044 2.88667 50.4344 2.77 50.9077 2.77C51.3811 2.77 51.8111 2.88667 52.1977 3.12C52.5844 3.35333 52.8877 3.67333 53.1077 4.08C53.3277 4.48667 53.4377 4.94 53.4377 5.44ZM52.8377 5.44C52.8377 5.04 52.7544 4.68 52.5877 4.36C52.4211 4.04 52.1877 3.79 51.8877 3.61C51.5944 3.42333 51.2677 3.33 50.9077 3.33C50.5477 3.33 50.2211 3.42333 49.9277 3.61C49.6344 3.79 49.4011 4.04 49.2277 4.36C49.0611 4.68 48.9777 5.04 48.9777 5.44C48.9777 5.83333 49.0611 6.19 49.2277 6.51C49.4011 6.83 49.6344 7.08333 49.9277 7.27C50.2211 7.45 50.5477 7.54 50.9077 7.54C51.2677 7.54 51.5944 7.45 51.8877 7.27C52.1877 7.09 52.4211 6.84 52.5877 6.52C52.7544 6.2 52.8377 5.84 52.8377 5.44ZM58.815 0.6C58.9017 0.6 58.9717 0.63 59.025 0.69C59.085 0.743333 59.115 0.813333 59.115 0.9V7.7C59.115 7.78667 59.085 7.86 59.025 7.92C58.9717 7.97333 58.9017 8 58.815 8C58.7283 8 58.655 7.97333 58.595 7.92C58.5417 7.86 58.515 7.78667 58.515 7.7V7C58.3483 7.30667 58.0983 7.56667 57.765 7.78C57.4383 7.99333 57.075 8.1 56.675 8.1C56.235 8.1 55.835 7.98667 55.475 7.76C55.1217 7.52667 54.8417 7.20667 54.635 6.8C54.4283 6.39333 54.325 5.93667 54.325 5.43C54.325 4.93 54.4283 4.47667 54.635 4.07C54.8417 3.66333 55.1217 3.34667 55.475 3.12C55.835 2.88667 56.2317 2.77 56.665 2.77C57.0583 2.77 57.4217 2.87 57.755 3.07C58.0883 3.26333 58.3417 3.51667 58.515 3.83V0.9C58.515 0.813333 58.5417 0.743333 58.595 0.69C58.655 0.63 58.7283 0.6 58.815 0.6ZM56.735 7.54C57.0817 7.54 57.3917 7.45 57.665 7.27C57.945 7.09 58.1617 6.84 58.315 6.52C58.475 6.19333 58.555 5.83 58.555 5.43C58.555 5.03667 58.475 4.68 58.315 4.36C58.1617 4.04 57.945 3.79 57.665 3.61C57.3917 3.42333 57.0817 3.33 56.735 3.33C56.3883 3.33 56.075 3.42333 55.795 3.61C55.5217 3.79 55.305 4.04 55.145 4.36C54.9917 4.68 54.915 5.03667 54.915 5.43C54.915 5.83 54.9917 6.19 55.145 6.51C55.305 6.83 55.5217 7.08333 55.795 7.27C56.075 7.45 56.3883 7.54 56.735 7.54ZM65.4006 5.44C65.4006 5.94 65.2906 6.39333 65.0706 6.8C64.8506 7.20667 64.5473 7.52667 64.1606 7.76C63.774 7.98667 63.344 8.1 62.8706 8.1C62.3973 8.1 61.9673 7.98667 61.5806 7.76C61.194 7.52667 60.8906 7.20667 60.6706 6.8C60.4506 6.39333 60.3406 5.94 60.3406 5.44C60.3406 4.94 60.4506 4.48667 60.6706 4.08C60.8906 3.67333 61.194 3.35333 61.5806 3.12C61.9673 2.88667 62.3973 2.77 62.8706 2.77C63.344 2.77 63.774 2.88667 64.1606 3.12C64.5473 3.35333 64.8506 3.67333 65.0706 4.08C65.2906 4.48667 65.4006 4.94 65.4006 5.44ZM64.8006 5.44C64.8006 5.04 64.7173 4.68 64.5506 4.36C64.384 4.04 64.1506 3.79 63.8506 3.61C63.5573 3.42333 63.2306 3.33 62.8706 3.33C62.5106 3.33 62.184 3.42333 61.8906 3.61C61.5973 3.79 61.364 4.04 61.1906 4.36C61.024 4.68 60.9406 5.04 60.9406 5.44C60.9406 5.83333 61.024 6.19 61.1906 6.51C61.364 6.83 61.5973 7.08333 61.8906 7.27C62.184 7.45 62.5106 7.54 62.8706 7.54C63.2306 7.54 63.5573 7.45 63.8506 7.27C64.1506 7.09 64.384 6.84 64.5506 6.52C64.7173 6.2 64.8006 5.84 64.8006 5.44ZM69.0179 2.77C69.1512 2.77 69.2712 2.79667 69.3779 2.85C69.4846 2.90333 69.5379 2.98333 69.5379 3.09C69.5379 3.18333 69.5112 3.26 69.4579 3.32C69.4046 3.37333 69.3412 3.4 69.2679 3.4C69.2346 3.4 69.1679 3.38333 69.0679 3.35C68.9746 3.31667 68.8846 3.3 68.7979 3.3C68.5512 3.3 68.3046 3.39667 68.0579 3.59C67.8179 3.77667 67.6179 4.02 67.4579 4.32C67.3046 4.62 67.2279 4.92333 67.2279 5.23V7.7C67.2279 7.78667 67.1979 7.86 67.1379 7.92C67.0846 7.97333 67.0146 8 66.9279 8C66.8412 8 66.7679 7.97333 66.7079 7.92C66.6546 7.86 66.6279 7.78667 66.6279 7.7V3.22C66.6279 3.13333 66.6546 3.06333 66.7079 3.01C66.7679 2.95 66.8412 2.92 66.9279 2.92C67.0146 2.92 67.0846 2.95 67.1379 3.01C67.1979 3.06333 67.2279 3.13333 67.2279 3.22V4.1C67.3812 3.72 67.6112 3.40667 67.9179 3.16C68.2312 2.90667 68.5979 2.77667 69.0179 2.77ZM74.9709 5.44C74.9709 5.94 74.8609 6.39333 74.6409 6.8C74.4209 7.20667 74.1176 7.52667 73.7309 7.76C73.3443 7.98667 72.9143 8.1 72.4409 8.1C71.9676 8.1 71.5376 7.98667 71.1509 7.76C70.7643 7.52667 70.4609 7.20667 70.2409 6.8C70.0209 6.39333 69.9109 5.94 69.9109 5.44C69.9109 4.94 70.0209 4.48667 70.2409 4.08C70.4609 3.67333 70.7643 3.35333 71.1509 3.12C71.5376 2.88667 71.9676 2.77 72.4409 2.77C72.9143 2.77 73.3443 2.88667 73.7309 3.12C74.1176 3.35333 74.4209 3.67333 74.6409 4.08C74.8609 4.48667 74.9709 4.94 74.9709 5.44ZM74.3709 5.44C74.3709 5.04 74.2876 4.68 74.1209 4.36C73.9543 4.04 73.7209 3.79 73.4209 3.61C73.1276 3.42333 72.8009 3.33 72.4409 3.33C72.0809 3.33 71.7543 3.42333 71.4609 3.61C71.1676 3.79 70.9343 4.04 70.7609 4.36C70.5943 4.68 70.5109 5.04 70.5109 5.44C70.5109 5.83333 70.5943 6.19 70.7609 6.51C70.9343 6.83 71.1676 7.08333 71.4609 7.27C71.7543 7.45 72.0809 7.54 72.4409 7.54C72.8009 7.54 73.1276 7.45 73.4209 7.27C73.7209 7.09 73.9543 6.84 74.1209 6.52C74.2876 6.2 74.3709 5.84 74.3709 5.44Z" fill="#D11818"/>
<path d="M33.24 16.7C33.2733 16.7467 33.29 16.7933 33.29 16.84C33.29 16.9133 33.2633 16.9667 33.21 17C33.1633 17.0333 33.1133 17.05 33.06 17.05C33.0067 17.05 32.96 17.0267 32.92 16.98L29.92 13.27L28.42 14.66V16.79C28.4133 16.85 28.39 16.9 28.35 16.94C28.31 16.98 28.2633 17 28.21 17C28.1433 17 28.09 16.98 28.05 16.94C28.0167 16.9 28 16.85 28 16.79V10.21C28 10.15 28.02 10.1 28.06 10.06C28.1 10.02 28.15 10 28.21 10C28.27 10 28.32 10.02 28.36 10.06C28.4 10.1 28.42 10.15 28.42 10.21V14.15L32.74 10.1C32.78 10.06 32.8267 10.04 32.88 10.04C32.9333 10.04 32.98 10.06 33.02 10.1C33.06 10.14 33.08 10.1867 33.08 10.24C33.08 10.2933 33.06 10.34 33.02 10.38L30.25 12.96L33.24 16.7ZM38.3816 15.8C38.4282 15.8 38.4682 15.82 38.5016 15.86C38.5349 15.8933 38.5516 15.9333 38.5516 15.98C38.5516 16.0267 38.5382 16.0667 38.5116 16.1C38.2916 16.3933 38.0182 16.6333 37.6916 16.82C37.3649 17.0067 37.0149 17.1 36.6416 17.1C36.1416 17.1 35.6982 16.9933 35.3116 16.78C34.9249 16.5667 34.6216 16.2633 34.4016 15.87C34.1882 15.4767 34.0816 15.02 34.0816 14.5C34.0816 13.9667 34.1849 13.5 34.3916 13.1C34.6049 12.6933 34.8849 12.3833 35.2316 12.17C35.5782 11.9567 35.9482 11.85 36.3416 11.85C36.7349 11.85 37.0982 11.9367 37.4316 12.11C37.7716 12.2767 38.0482 12.53 38.2616 12.87C38.4749 13.21 38.5882 13.63 38.6016 14.13C38.6016 14.1833 38.5816 14.2333 38.5416 14.28C38.5016 14.32 38.4549 14.34 38.4016 14.34H34.4716V14.47C34.4716 14.8833 34.5549 15.2633 34.7216 15.61C34.8882 15.95 35.1349 16.22 35.4616 16.42C35.7882 16.62 36.1816 16.72 36.6416 16.72C36.9616 16.72 37.2616 16.6433 37.5416 16.49C37.8282 16.33 38.0516 16.13 38.2116 15.89C38.2582 15.83 38.3149 15.8 38.3816 15.8ZM36.3416 12.25C36.0949 12.25 35.8416 12.3167 35.5816 12.45C35.3282 12.5767 35.1016 12.77 34.9016 13.03C34.7082 13.2833 34.5782 13.5933 34.5116 13.96H38.1916V13.87C38.1582 13.53 38.0482 13.24 37.8616 13C37.6816 12.7533 37.4549 12.5667 37.1816 12.44C36.9149 12.3133 36.6349 12.25 36.3416 12.25ZM43.8601 15.8C43.9067 15.8 43.9467 15.82 43.9801 15.86C44.0134 15.8933 44.0301 15.9333 44.0301 15.98C44.0301 16.0267 44.0167 16.0667 43.9901 16.1C43.7701 16.3933 43.4967 16.6333 43.1701 16.82C42.8434 17.0067 42.4934 17.1 42.1201 17.1C41.6201 17.1 41.1767 16.9933 40.7901 16.78C40.4034 16.5667 40.1001 16.2633 39.8801 15.87C39.6667 15.4767 39.5601 15.02 39.5601 14.5C39.5601 13.9667 39.6634 13.5 39.8701 13.1C40.0834 12.6933 40.3634 12.3833 40.7101 12.17C41.0567 11.9567 41.4267 11.85 41.8201 11.85C42.2134 11.85 42.5767 11.9367 42.9101 12.11C43.2501 12.2767 43.5267 12.53 43.7401 12.87C43.9534 13.21 44.0667 13.63 44.0801 14.13C44.0801 14.1833 44.0601 14.2333 44.0201 14.28C43.9801 14.32 43.9334 14.34 43.8801 14.34H39.9501V14.47C39.9501 14.8833 40.0334 15.2633 40.2001 15.61C40.3667 15.95 40.6134 16.22 40.9401 16.42C41.2667 16.62 41.6601 16.72 42.1201 16.72C42.4401 16.72 42.7401 16.6433 43.0201 16.49C43.3067 16.33 43.5301 16.13 43.6901 15.89C43.7367 15.83 43.7934 15.8 43.8601 15.8ZM41.8201 12.25C41.5734 12.25 41.3201 12.3167 41.0601 12.45C40.8067 12.5767 40.5801 12.77 40.3801 13.03C40.1867 13.2833 40.0567 13.5933 39.9901 13.96H43.6701V13.87C43.6367 13.53 43.5267 13.24 43.3401 13C43.1601 12.7533 42.9334 12.5667 42.6601 12.44C42.3934 12.3133 42.1134 12.25 41.8201 12.25ZM47.7086 11.95C48.1486 11.95 48.5453 12.06 48.8986 12.28C49.2519 12.5 49.5286 12.8033 49.7286 13.19C49.9286 13.5767 50.0286 14.0133 50.0286 14.5C50.0286 14.98 49.9253 15.4167 49.7186 15.81C49.5186 16.1967 49.2419 16.5033 48.8886 16.73C48.5353 16.95 48.1419 17.06 47.7086 17.06C47.3086 17.06 46.9419 16.96 46.6086 16.76C46.2753 16.56 46.0019 16.2767 45.7886 15.91V18.8C45.7886 18.8533 45.7686 18.9 45.7286 18.94C45.6953 18.98 45.6486 19 45.5886 19C45.5353 19 45.4886 18.98 45.4486 18.94C45.4086 18.9 45.3886 18.8533 45.3886 18.8V12.15C45.3886 12.0967 45.4053 12.05 45.4386 12.01C45.4786 11.97 45.5286 11.95 45.5886 11.95C45.6486 11.95 45.6953 11.97 45.7286 12.01C45.7686 12.05 45.7886 12.0967 45.7886 12.15V13.07C45.9886 12.69 46.2553 12.41 46.5886 12.23C46.9219 12.0433 47.2953 11.95 47.7086 11.95ZM47.6886 16.68C48.0553 16.68 48.3853 16.5867 48.6786 16.4C48.9719 16.2133 49.2019 15.9533 49.3686 15.62C49.5419 15.2867 49.6286 14.9133 49.6286 14.5C49.6286 14.0867 49.5419 13.7167 49.3686 13.39C49.2019 13.0567 48.9719 12.7967 48.6786 12.61C48.3853 12.4233 48.0553 12.33 47.6886 12.33C47.3153 12.33 46.9786 12.4233 46.6786 12.61C46.3853 12.79 46.1553 13.0467 45.9886 13.38C45.8286 13.7067 45.7486 14.08 45.7486 14.5C45.7486 14.92 45.8286 15.2967 45.9886 15.63C46.1553 15.9567 46.3853 16.2133 46.6786 16.4C46.9786 16.5867 47.3153 16.68 47.6886 16.68ZM55.2859 15.8C55.3325 15.8 55.3725 15.82 55.4059 15.86C55.4392 15.8933 55.4559 15.9333 55.4559 15.98C55.4559 16.0267 55.4425 16.0667 55.4159 16.1C55.1959 16.3933 54.9225 16.6333 54.5959 16.82C54.2692 17.0067 53.9192 17.1 53.5459 17.1C53.0459 17.1 52.6025 16.9933 52.2159 16.78C51.8292 16.5667 51.5259 16.2633 51.3059 15.87C51.0925 15.4767 50.9859 15.02 50.9859 14.5C50.9859 13.9667 51.0892 13.5 51.2959 13.1C51.5092 12.6933 51.7892 12.3833 52.1359 12.17C52.4825 11.9567 52.8525 11.85 53.2459 11.85C53.6392 11.85 54.0025 11.9367 54.3359 12.11C54.6759 12.2767 54.9525 12.53 55.1659 12.87C55.3792 13.21 55.4925 13.63 55.5059 14.13C55.5059 14.1833 55.4859 14.2333 55.4459 14.28C55.4059 14.32 55.3592 14.34 55.3059 14.34H51.3759V14.47C51.3759 14.8833 51.4592 15.2633 51.6259 15.61C51.7925 15.95 52.0392 16.22 52.3659 16.42C52.6925 16.62 53.0859 16.72 53.5459 16.72C53.8659 16.72 54.1659 16.6433 54.4459 16.49C54.7325 16.33 54.9559 16.13 55.1159 15.89C55.1625 15.83 55.2192 15.8 55.2859 15.8ZM53.2459 12.25C52.9992 12.25 52.7459 12.3167 52.4859 12.45C52.2325 12.5767 52.0059 12.77 51.8059 13.03C51.6125 13.2833 51.4825 13.5933 51.4159 13.96H55.0959V13.87C55.0625 13.53 54.9525 13.24 54.7659 13C54.5859 12.7533 54.3592 12.5667 54.0859 12.44C53.8192 12.3133 53.5392 12.25 53.2459 12.25ZM59.0744 11.85C59.381 11.85 59.5344 11.9267 59.5344 12.08C59.5344 12.14 59.5177 12.19 59.4844 12.23C59.451 12.27 59.4077 12.29 59.3544 12.29C59.3344 12.29 59.2844 12.2767 59.2044 12.25C59.131 12.2167 59.051 12.2 58.9644 12.2C58.691 12.2 58.4177 12.31 58.1444 12.53C57.871 12.7433 57.6477 13.0167 57.4744 13.35C57.301 13.6767 57.2144 13.9933 57.2144 14.3V16.8C57.2144 16.8533 57.1944 16.9 57.1544 16.94C57.1144 16.98 57.0677 17 57.0144 17C56.9544 17 56.9044 16.98 56.8644 16.94C56.831 16.9 56.8144 16.8533 56.8144 16.8V12.21C56.8144 12.1567 56.8344 12.11 56.8744 12.07C56.9144 12.03 56.961 12.01 57.0144 12.01C57.0744 12.01 57.121 12.03 57.1544 12.07C57.1944 12.11 57.2144 12.1567 57.2144 12.21V13.27C57.3677 12.8633 57.6044 12.5267 57.9244 12.26C58.251 11.9933 58.6344 11.8567 59.0744 11.85Z" fill="#B3B3B3"/>
<path d="M12.25 11.5L18.375 22H6.125L12.25 11.5Z" fill="#D11818" fill-opacity="0.4"/>
<path d="M6.125 22L1.17255e-07 11.5L12.25 11.5L6.125 22Z" fill="#D11818" fill-opacity="0.2"/>
<path d="M6.125 1L12.25 11.5L0 11.5L6.125 1Z" fill="#D11818" fill-opacity="0.1"/>
<path d="M12.25 11.5L6.125 1L18.375 1L12.25 11.5Z" fill="#D11818"/>
<path d="M18.375 1L24.5 11.5L12.25 11.5L18.375 1Z" fill="#D11818" fill-opacity="0.8"/>
<path d="M18.375 22L12.25 11.5L24.5 11.5L18.375 22Z" fill="#D11818" fill-opacity="0.6"/>
</svg>
