<svg width="89" height="24" viewBox="0 0 89 24" fill="none" xmlns="http://www.w3.org/2000/svg">
<path d="M35.7531 1.6C36.1931 1.6 36.5891 1.704 36.9411 1.912C37.2931 2.112 37.5651 2.396 37.7571 2.764C37.9571 3.124 38.0571 3.532 38.0571 3.988C38.0571 4.444 37.9571 4.86 37.7571 5.236C37.5651 5.612 37.2931 5.908 36.9411 6.124C36.5891 6.34 36.1931 6.448 35.7531 6.448H33.2691V9.64C33.2691 9.744 33.2331 9.832 33.1611 9.904C33.0971 9.968 33.0131 10 32.9091 10C32.8051 10 32.7171 9.968 32.6451 9.904C32.5811 9.832 32.5491 9.744 32.5491 9.64V1.96C32.5491 1.856 32.5811 1.772 32.6451 1.708C32.7171 1.636 32.8051 1.6 32.9091 1.6H35.7531ZM35.7531 5.752C36.2171 5.752 36.5931 5.584 36.8811 5.248C37.1691 4.912 37.3131 4.492 37.3131 3.988C37.3131 3.492 37.1691 3.088 36.8811 2.776C36.5931 2.464 36.2171 2.308 35.7531 2.308H33.2691V5.752H35.7531ZM45.0643 6.928C45.0643 7.528 44.9323 8.072 44.6683 8.56C44.4043 9.048 44.0403 9.432 43.5763 9.712C43.1123 9.984 42.5963 10.12 42.0283 10.12C41.4603 10.12 40.9443 9.984 40.4803 9.712C40.0163 9.432 39.6523 9.048 39.3883 8.56C39.1243 8.072 38.9923 7.528 38.9923 6.928C38.9923 6.328 39.1243 5.784 39.3883 5.296C39.6523 4.808 40.0163 4.424 40.4803 4.144C40.9443 3.864 41.4603 3.724 42.0283 3.724C42.5963 3.724 43.1123 3.864 43.5763 4.144C44.0403 4.424 44.4043 4.808 44.6683 5.296C44.9323 5.784 45.0643 6.328 45.0643 6.928ZM44.3443 6.928C44.3443 6.448 44.2443 6.016 44.0443 5.632C43.8443 5.248 43.5643 4.948 43.2043 4.732C42.8523 4.508 42.4603 4.396 42.0283 4.396C41.5963 4.396 41.2043 4.508 40.8523 4.732C40.5003 4.948 40.2203 5.248 40.0123 5.632C39.8123 6.016 39.7123 6.448 39.7123 6.928C39.7123 7.4 39.8123 7.828 40.0123 8.212C40.2203 8.596 40.5003 8.9 40.8523 9.124C41.2043 9.34 41.5963 9.448 42.0283 9.448C42.4603 9.448 42.8523 9.34 43.2043 9.124C43.5643 8.908 43.8443 8.608 44.0443 8.224C44.2443 7.84 44.3443 7.408 44.3443 6.928ZM53.4971 3.82C54.2171 3.82 54.7451 4.044 55.0811 4.492C55.4251 4.932 55.5971 5.516 55.5971 6.244V9.64C55.5971 9.744 55.5611 9.832 55.4891 9.904C55.4251 9.968 55.3411 10 55.2371 10C55.1331 10 55.0451 9.968 54.9731 9.904C54.9091 9.832 54.8771 9.744 54.8771 9.64V6.28C54.8771 5.752 54.7491 5.324 54.4931 4.996C54.2451 4.66 53.8571 4.492 53.3291 4.492C52.9931 4.492 52.6731 4.572 52.3691 4.732C52.0731 4.892 51.8331 5.112 51.6491 5.392C51.4651 5.664 51.3731 5.96 51.3731 6.28V9.64C51.3731 9.744 51.3371 9.832 51.2651 9.904C51.2011 9.968 51.1171 10 51.0131 10C50.9091 10 50.8211 9.968 50.7491 9.904C50.6851 9.832 50.6531 9.744 50.6531 9.64V6.244C50.6531 5.724 50.5331 5.304 50.2931 4.984C50.0531 4.656 49.6771 4.492 49.1651 4.492C48.8371 4.492 48.5251 4.572 48.2291 4.732C47.9411 4.892 47.7051 5.108 47.5211 5.38C47.3451 5.644 47.2571 5.932 47.2571 6.244V9.64C47.2571 9.744 47.2211 9.832 47.1491 9.904C47.0851 9.968 47.0011 10 46.8971 10C46.7931 10 46.7051 9.968 46.6331 9.904C46.5691 9.832 46.5371 9.744 46.5371 9.64V4.264C46.5371 4.16 46.5691 4.076 46.6331 4.012C46.7051 3.94 46.7931 3.904 46.8971 3.904C47.0011 3.904 47.0851 3.94 47.1491 4.012C47.2211 4.076 47.2571 4.16 47.2571 4.264V4.96C47.4731 4.632 47.7651 4.36 48.1331 4.144C48.5011 3.928 48.8891 3.82 49.2971 3.82C49.7611 3.82 50.1611 3.932 50.4971 4.156C50.8331 4.38 51.0731 4.708 51.2171 5.14C51.3851 4.788 51.6931 4.48 52.1411 4.216C52.5891 3.952 53.0411 3.82 53.4971 3.82ZM63.1464 6.928C63.1464 7.528 63.0144 8.072 62.7504 8.56C62.4864 9.048 62.1224 9.432 61.6584 9.712C61.1944 9.984 60.6784 10.12 60.1104 10.12C59.5424 10.12 59.0264 9.984 58.5624 9.712C58.0984 9.432 57.7344 9.048 57.4704 8.56C57.2064 8.072 57.0744 7.528 57.0744 6.928C57.0744 6.328 57.2064 5.784 57.4704 5.296C57.7344 4.808 58.0984 4.424 58.5624 4.144C59.0264 3.864 59.5424 3.724 60.1104 3.724C60.6784 3.724 61.1944 3.864 61.6584 4.144C62.1224 4.424 62.4864 4.808 62.7504 5.296C63.0144 5.784 63.1464 6.328 63.1464 6.928ZM62.4264 6.928C62.4264 6.448 62.3264 6.016 62.1264 5.632C61.9264 5.248 61.6464 4.948 61.2864 4.732C60.9344 4.508 60.5424 4.396 60.1104 4.396C59.6784 4.396 59.2864 4.508 58.9344 4.732C58.5824 4.948 58.3024 5.248 58.0944 5.632C57.8944 6.016 57.7944 6.448 57.7944 6.928C57.7944 7.4 57.8944 7.828 58.0944 8.212C58.3024 8.596 58.5824 8.9 58.9344 9.124C59.2864 9.34 59.6784 9.448 60.1104 9.448C60.5424 9.448 60.9344 9.34 61.2864 9.124C61.6464 8.908 61.9264 8.608 62.1264 8.224C62.3264 7.84 62.4264 7.408 62.4264 6.928ZM69.5991 1.12C69.7031 1.12 69.7871 1.156 69.8511 1.228C69.9231 1.292 69.9591 1.376 69.9591 1.48V9.64C69.9591 9.744 69.9231 9.832 69.8511 9.904C69.7871 9.968 69.7031 10 69.5991 10C69.4951 10 69.4071 9.968 69.3351 9.904C69.2711 9.832 69.2391 9.744 69.2391 9.64V8.8C69.0391 9.168 68.7391 9.48 68.3391 9.736C67.9471 9.992 67.5111 10.12 67.0311 10.12C66.5031 10.12 66.0231 9.984 65.5911 9.712C65.1671 9.432 64.8311 9.048 64.5831 8.56C64.3351 8.072 64.2111 7.524 64.2111 6.916C64.2111 6.316 64.3351 5.772 64.5831 5.284C64.8311 4.796 65.1671 4.416 65.5911 4.144C66.0231 3.864 66.4991 3.724 67.0191 3.724C67.4911 3.724 67.9271 3.844 68.3271 4.084C68.7271 4.316 69.0311 4.62 69.2391 4.996V1.48C69.2391 1.376 69.2711 1.292 69.3351 1.228C69.4071 1.156 69.4951 1.12 69.5991 1.12ZM67.1031 9.448C67.5191 9.448 67.8911 9.34 68.2191 9.124C68.5551 8.908 68.8151 8.608 68.9991 8.224C69.1911 7.832 69.2871 7.396 69.2871 6.916C69.2871 6.444 69.1911 6.016 68.9991 5.632C68.8151 5.248 68.5551 4.948 68.2191 4.732C67.8911 4.508 67.5191 4.396 67.1031 4.396C66.6871 4.396 66.3111 4.508 65.9751 4.732C65.6471 4.948 65.3871 5.248 65.1951 5.632C65.0111 6.016 64.9191 6.444 64.9191 6.916C64.9191 7.396 65.0111 7.828 65.1951 8.212C65.3871 8.596 65.6471 8.9 65.9751 9.124C66.3111 9.34 66.6871 9.448 67.1031 9.448ZM77.5018 6.928C77.5018 7.528 77.3698 8.072 77.1058 8.56C76.8418 9.048 76.4778 9.432 76.0138 9.712C75.5498 9.984 75.0338 10.12 74.4658 10.12C73.8978 10.12 73.3818 9.984 72.9178 9.712C72.4538 9.432 72.0898 9.048 71.8258 8.56C71.5618 8.072 71.4298 7.528 71.4298 6.928C71.4298 6.328 71.5618 5.784 71.8258 5.296C72.0898 4.808 72.4538 4.424 72.9178 4.144C73.3818 3.864 73.8978 3.724 74.4658 3.724C75.0338 3.724 75.5498 3.864 76.0138 4.144C76.4778 4.424 76.8418 4.808 77.1058 5.296C77.3698 5.784 77.5018 6.328 77.5018 6.928ZM76.7818 6.928C76.7818 6.448 76.6818 6.016 76.4818 5.632C76.2818 5.248 76.0018 4.948 75.6418 4.732C75.2898 4.508 74.8978 4.396 74.4658 4.396C74.0338 4.396 73.6418 4.508 73.2898 4.732C72.9378 4.948 72.6578 5.248 72.4498 5.632C72.2498 6.016 72.1498 6.448 72.1498 6.928C72.1498 7.4 72.2498 7.828 72.4498 8.212C72.6578 8.596 72.9378 8.9 73.2898 9.124C73.6418 9.34 74.0338 9.448 74.4658 9.448C74.8978 9.448 75.2898 9.34 75.6418 9.124C76.0018 8.908 76.2818 8.608 76.4818 8.224C76.6818 7.84 76.7818 7.408 76.7818 6.928ZM81.8426 3.724C82.0026 3.724 82.1466 3.756 82.2746 3.82C82.4026 3.884 82.4666 3.98 82.4666 4.108C82.4666 4.22 82.4346 4.312 82.3706 4.384C82.3066 4.448 82.2306 4.48 82.1426 4.48C82.1026 4.48 82.0226 4.46 81.9026 4.42C81.7906 4.38 81.6826 4.36 81.5786 4.36C81.2826 4.36 80.9866 4.476 80.6906 4.708C80.4026 4.932 80.1626 5.224 79.9706 5.584C79.7866 5.944 79.6946 6.308 79.6946 6.676V9.64C79.6946 9.744 79.6586 9.832 79.5866 9.904C79.5226 9.968 79.4386 10 79.3346 10C79.2306 10 79.1426 9.968 79.0706 9.904C79.0066 9.832 78.9746 9.744 78.9746 9.64V4.264C78.9746 4.16 79.0066 4.076 79.0706 4.012C79.1426 3.94 79.2306 3.904 79.3346 3.904C79.4386 3.904 79.5226 3.94 79.5866 4.012C79.6586 4.076 79.6946 4.16 79.6946 4.264V5.32C79.8786 4.864 80.1546 4.488 80.5226 4.192C80.8986 3.888 81.3386 3.732 81.8426 3.724ZM88.9862 6.928C88.9862 7.528 88.8542 8.072 88.5902 8.56C88.3262 9.048 87.9622 9.432 87.4982 9.712C87.0342 9.984 86.5182 10.12 85.9502 10.12C85.3822 10.12 84.8662 9.984 84.4022 9.712C83.9382 9.432 83.5742 9.048 83.3102 8.56C83.0462 8.072 82.9142 7.528 82.9142 6.928C82.9142 6.328 83.0462 5.784 83.3102 5.296C83.5742 4.808 83.9382 4.424 84.4022 4.144C84.8662 3.864 85.3822 3.724 85.9502 3.724C86.5182 3.724 87.0342 3.864 87.4982 4.144C87.9622 4.424 88.3262 4.808 88.5902 5.296C88.8542 5.784 88.9862 6.328 88.9862 6.928ZM88.2662 6.928C88.2662 6.448 88.1662 6.016 87.9662 5.632C87.7662 5.248 87.4862 4.948 87.1262 4.732C86.7742 4.508 86.3822 4.396 85.9502 4.396C85.5182 4.396 85.1262 4.508 84.7742 4.732C84.4222 4.948 84.1422 5.248 83.9342 5.632C83.7342 6.016 83.6342 6.448 83.6342 6.928C83.6342 7.4 83.7342 7.828 83.9342 8.212C84.1422 8.596 84.4222 8.9 84.7742 9.124C85.1262 9.34 85.5182 9.448 85.9502 9.448C86.3822 9.448 86.7742 9.34 87.1262 9.124C87.4862 8.908 87.7662 8.608 87.9662 8.224C88.1662 7.84 88.2662 7.408 88.2662 6.928Z" fill="#D11818"/>
<path d="M38.9091 20.64C38.9491 20.696 38.9691 20.752 38.9691 20.808C38.9691 20.896 38.9371 20.96 38.8731 21C38.8171 21.04 38.7571 21.06 38.6931 21.06C38.6291 21.06 38.5731 21.032 38.5251 20.976L34.9251 16.524L33.1251 18.192V20.748C33.1171 20.82 33.0891 20.88 33.0411 20.928C32.9931 20.976 32.9371 21 32.8731 21C32.7931 21 32.7291 20.976 32.6811 20.928C32.6411 20.88 32.6211 20.82 32.6211 20.748V12.852C32.6211 12.78 32.6451 12.72 32.6931 12.672C32.7411 12.624 32.8011 12.6 32.8731 12.6C32.9451 12.6 33.0051 12.624 33.0531 12.672C33.1011 12.72 33.1251 12.78 33.1251 12.852V17.58L38.3091 12.72C38.3571 12.672 38.4131 12.648 38.4771 12.648C38.5411 12.648 38.5971 12.672 38.6451 12.72C38.6931 12.768 38.7171 12.824 38.7171 12.888C38.7171 12.952 38.6931 13.008 38.6451 13.056L35.3211 16.152L38.9091 20.64ZM45.079 19.56C45.135 19.56 45.183 19.584 45.223 19.632C45.263 19.672 45.283 19.72 45.283 19.776C45.283 19.832 45.267 19.88 45.235 19.92C44.971 20.272 44.643 20.56 44.251 20.784C43.859 21.008 43.439 21.12 42.991 21.12C42.391 21.12 41.859 20.992 41.395 20.736C40.931 20.48 40.567 20.116 40.303 19.644C40.047 19.172 39.919 18.624 39.919 18C39.919 17.36 40.043 16.8 40.291 16.32C40.547 15.832 40.883 15.46 41.299 15.204C41.715 14.948 42.159 14.82 42.631 14.82C43.103 14.82 43.539 14.924 43.939 15.132C44.347 15.332 44.679 15.636 44.935 16.044C45.191 16.452 45.327 16.956 45.343 17.556C45.343 17.62 45.319 17.68 45.271 17.736C45.223 17.784 45.167 17.808 45.103 17.808H40.387V17.964C40.387 18.46 40.487 18.916 40.687 19.332C40.887 19.74 41.183 20.064 41.575 20.304C41.967 20.544 42.439 20.664 42.991 20.664C43.375 20.664 43.735 20.572 44.071 20.388C44.415 20.196 44.683 19.956 44.875 19.668C44.931 19.596 44.999 19.56 45.079 19.56ZM42.631 15.3C42.335 15.3 42.031 15.38 41.719 15.54C41.415 15.692 41.143 15.924 40.903 16.236C40.671 16.54 40.515 16.912 40.435 17.352H44.851V17.244C44.811 16.836 44.679 16.488 44.455 16.2C44.239 15.904 43.967 15.68 43.639 15.528C43.319 15.376 42.983 15.3 42.631 15.3ZM51.6532 19.56C51.7092 19.56 51.7572 19.584 51.7972 19.632C51.8372 19.672 51.8572 19.72 51.8572 19.776C51.8572 19.832 51.8412 19.88 51.8092 19.92C51.5452 20.272 51.2172 20.56 50.8252 20.784C50.4332 21.008 50.0132 21.12 49.5652 21.12C48.9652 21.12 48.4332 20.992 47.9692 20.736C47.5052 20.48 47.1412 20.116 46.8772 19.644C46.6212 19.172 46.4932 18.624 46.4932 18C46.4932 17.36 46.6172 16.8 46.8652 16.32C47.1212 15.832 47.4572 15.46 47.8732 15.204C48.2892 14.948 48.7332 14.82 49.2052 14.82C49.6772 14.82 50.1132 14.924 50.5132 15.132C50.9212 15.332 51.2532 15.636 51.5092 16.044C51.7652 16.452 51.9012 16.956 51.9172 17.556C51.9172 17.62 51.8932 17.68 51.8452 17.736C51.7972 17.784 51.7412 17.808 51.6772 17.808H46.9612V17.964C46.9612 18.46 47.0612 18.916 47.2612 19.332C47.4612 19.74 47.7572 20.064 48.1492 20.304C48.5412 20.544 49.0132 20.664 49.5652 20.664C49.9492 20.664 50.3092 20.572 50.6452 20.388C50.9892 20.196 51.2572 19.956 51.4492 19.668C51.5052 19.596 51.5732 19.56 51.6532 19.56ZM49.2052 15.3C48.9092 15.3 48.6052 15.38 48.2932 15.54C47.9892 15.692 47.7172 15.924 47.4772 16.236C47.2452 16.54 47.0892 16.912 47.0092 17.352H51.4252V17.244C51.3852 16.836 51.2532 16.488 51.0292 16.2C50.8132 15.904 50.5412 15.68 50.2132 15.528C49.8932 15.376 49.5572 15.3 49.2052 15.3ZM56.2714 14.94C56.7994 14.94 57.2754 15.072 57.6994 15.336C58.1234 15.6 58.4554 15.964 58.6954 16.428C58.9354 16.892 59.0554 17.416 59.0554 18C59.0554 18.576 58.9314 19.1 58.6834 19.572C58.4434 20.036 58.1114 20.404 57.6874 20.676C57.2634 20.94 56.7914 21.072 56.2714 21.072C55.7914 21.072 55.3514 20.952 54.9514 20.712C54.5514 20.472 54.2234 20.132 53.9674 19.692V23.16C53.9674 23.224 53.9434 23.28 53.8954 23.328C53.8554 23.376 53.7994 23.4 53.7274 23.4C53.6634 23.4 53.6074 23.376 53.5594 23.328C53.5114 23.28 53.4874 23.224 53.4874 23.16V15.18C53.4874 15.116 53.5074 15.06 53.5474 15.012C53.5954 14.964 53.6554 14.94 53.7274 14.94C53.7994 14.94 53.8554 14.964 53.8954 15.012C53.9434 15.06 53.9674 15.116 53.9674 15.18V16.284C54.2074 15.828 54.5274 15.492 54.9274 15.276C55.3274 15.052 55.7754 14.94 56.2714 14.94ZM56.2474 20.616C56.6874 20.616 57.0834 20.504 57.4354 20.28C57.7874 20.056 58.0634 19.744 58.2634 19.344C58.4714 18.944 58.5754 18.496 58.5754 18C58.5754 17.504 58.4714 17.06 58.2634 16.668C58.0634 16.268 57.7874 15.956 57.4354 15.732C57.0834 15.508 56.6874 15.396 56.2474 15.396C55.7994 15.396 55.3954 15.508 55.0354 15.732C54.6834 15.948 54.4074 16.256 54.2074 16.656C54.0154 17.048 53.9194 17.496 53.9194 18C53.9194 18.504 54.0154 18.956 54.2074 19.356C54.4074 19.748 54.6834 20.056 55.0354 20.28C55.3954 20.504 55.7994 20.616 56.2474 20.616ZM65.3641 19.56C65.4201 19.56 65.4681 19.584 65.5081 19.632C65.5481 19.672 65.5681 19.72 65.5681 19.776C65.5681 19.832 65.5521 19.88 65.5201 19.92C65.2561 20.272 64.9281 20.56 64.5361 20.784C64.1441 21.008 63.7241 21.12 63.2761 21.12C62.6761 21.12 62.1441 20.992 61.6801 20.736C61.2161 20.48 60.8521 20.116 60.5881 19.644C60.3321 19.172 60.2041 18.624 60.2041 18C60.2041 17.36 60.3281 16.8 60.5761 16.32C60.8321 15.832 61.1681 15.46 61.5841 15.204C62.0001 14.948 62.4441 14.82 62.9161 14.82C63.3881 14.82 63.8241 14.924 64.2241 15.132C64.6321 15.332 64.9641 15.636 65.2201 16.044C65.4761 16.452 65.6121 16.956 65.6281 17.556C65.6281 17.62 65.6041 17.68 65.5561 17.736C65.5081 17.784 65.4521 17.808 65.3881 17.808H60.6721V17.964C60.6721 18.46 60.7721 18.916 60.9721 19.332C61.1721 19.74 61.4681 20.064 61.8601 20.304C62.2521 20.544 62.7241 20.664 63.2761 20.664C63.6601 20.664 64.0201 20.572 64.3561 20.388C64.7001 20.196 64.9681 19.956 65.1601 19.668C65.2161 19.596 65.2841 19.56 65.3641 19.56ZM62.9161 15.3C62.6201 15.3 62.3161 15.38 62.0041 15.54C61.7001 15.692 61.4281 15.924 61.1881 16.236C60.9561 16.54 60.8001 16.912 60.7201 17.352H65.1361V17.244C65.0961 16.836 64.9641 16.488 64.7401 16.2C64.5241 15.904 64.2521 15.68 63.9241 15.528C63.6041 15.376 63.2681 15.3 62.9161 15.3ZM69.9103 14.82C70.2783 14.82 70.4623 14.912 70.4623 15.096C70.4623 15.168 70.4423 15.228 70.4023 15.276C70.3623 15.324 70.3103 15.348 70.2463 15.348C70.2223 15.348 70.1623 15.332 70.0663 15.3C69.9783 15.26 69.8823 15.24 69.7783 15.24C69.4503 15.24 69.1223 15.372 68.7943 15.636C68.4663 15.892 68.1983 16.22 67.9903 16.62C67.7823 17.012 67.6783 17.392 67.6783 17.76V20.76C67.6783 20.824 67.6543 20.88 67.6063 20.928C67.5583 20.976 67.5023 21 67.4383 21C67.3663 21 67.3063 20.976 67.2583 20.928C67.2183 20.88 67.1983 20.824 67.1983 20.76V15.252C67.1983 15.188 67.2223 15.132 67.2703 15.084C67.3183 15.036 67.3743 15.012 67.4383 15.012C67.5103 15.012 67.5663 15.036 67.6063 15.084C67.6543 15.132 67.6783 15.188 67.6783 15.252V16.524C67.8623 16.036 68.1463 15.632 68.5303 15.312C68.9223 14.992 69.3823 14.828 69.9103 14.82Z" fill="#B3B3B3"/>
<path d="M12.8948 11.5L19.3421 22H6.44739L12.8948 11.5Z" fill="#D11818" fill-opacity="0.4"/>
<path d="M6.44735 22L-2.21643e-05 11.5L12.8947 11.5L6.44735 22Z" fill="#D11818" fill-opacity="0.2"/>
<path d="M6.44737 1L12.8947 11.5L0 11.5L6.44737 1Z" fill="#D11818" fill-opacity="0.1"/>
<path d="M12.8947 11.5L6.44736 1L19.3421 1L12.8947 11.5Z" fill="#D11818"/>
<path d="M19.3421 1L25.7895 11.5L12.8947 11.5L19.3421 1Z" fill="#D11818" fill-opacity="0.8"/>
<path d="M19.3421 22L12.8948 11.5L25.7895 11.5L19.3421 22Z" fill="#D11818" fill-opacity="0.6"/>
</svg>
